<?xml version="1.0" encoding="UTF-8"?>
<svg xmlns="http://www.w3.org/2000/svg" viewBox="0 0 256 256">
  <path fill="#68217A" d="M222.7 180.8c1.9-3.3 3.1-7.1 3.1-11.1V86.3c0-4-1.1-7.8-3.1-11.1L128 128l94.7 52.8z"/>
  <path fill="#8041A5" d="M128 128 33.3 75.2c-1.9 3.3-3.1 7.1-3.1 11.1v83.4c0 4 1.1 7.8 3.1 11.1L128 128z"/>
  <path fill="#A47BC3" d="M222.7 74c-1.6-2.7-3.9-5-6.5-6.5l-80.8-45.1c-6-3.3-13.2-3.3-19.2 0L35.4 67.5c-2.7 1.6-5 3.9-6.5 6.5L128 128l94.7-54z"/>
  <path fill="#3C0E49" d="M128 128 35.4 188.5c1.6 2.7 3.9 5 6.5 6.5l80.8 45.1c6 3.3 13.2 3.3 19.2 0l80.8-45.1c2.7-1.6 5-3.9 6.5-6.5L128 128z"/>
  <path fill="#FFF" d="M146.7 163.7c-5.7 3.3-12.2 5-19.2 5-10.2 0-18.7-3.2-25.4-9.6-6.7-6.4-10.1-14.9-10.1-25.3 0-10.4 3.4-18.9 10.1-25.3 6.7-6.4 15.2-9.6 25.4-9.6 6.5 0 12.6 1.2 18 3.7 5.5 2.5 9.8 6 12.9 10.6l-11.6 7.4c-4.5-6.1-10.7-9.2-18.6-9.2-6 0-10.9 1.9-14.6 5.7-3.7 3.8-5.6 9-5.6 15.8 0 6.8 1.9 12.1 5.6 15.9 3.7 3.8 8.6 5.7 14.6 5.7 8.1 0 14.5-3.3 19.3-9.9l11.6 7.2c-3.4 5.2-7.8 9.1-13.1 11.7z"/>
  <path fill="#FFF" d="M185.7 144.1h-4.7l1.2-8.1h4.7l1.7-11.6h-4.7l1.2-8.1h4.7l1.5-10.2h8l-1.5 10.2h6.8l1.5-10.2h8l-1.5 10.2h4.7l-1.2 8.1h-4.7l-1.7 11.6h4.7l-1.2 8.1h-4.7l-1.5 10.5h-8l1.5-10.5h-6.8l-1.5 10.5h-8l1.6-10.5z"/>
  <path fill="#FFF" d="M188.9 127.9h6.8l1.7-11.6h-6.8zM202.2 127.9h6.8l1.7-11.6h-6.8z"/>
</svg>
