<svg width="64" height="64" viewBox="0 0 64 64" fill="none" xmlns="http://www.w3.org/2000/svg">
  <rect width="64" height="64" rx="14" fill="#0F172A"/>
  <path d="M22.6409 15.9998C21.5508 15.9998 20.5459 16.594 20.0172 17.5498L17.3128 22.4338C16.7062 23.5296 16.8138 24.8932 17.5877 25.8807L22.8398 32.5807C27.3942 38.3928 32.6071 43.6057 38.4192 48.1601L45.1192 53.4122C46.1067 54.1861 47.4703 54.2937 48.5661 53.6871L53.4501 50.9827C54.4059 50.454 55.0001 49.4491 55.0001 48.359V39.9998C55.0001 38.343 53.657 36.9998 52.0001 36.9998H45.4479C44.603 36.9998 43.7976 37.3564 43.2291 37.9822L40.2898 41.215C39.5779 41.9981 38.4068 42.1188 37.5524 41.4969C34.5724 39.3271 31.8784 36.6332 29.7087 33.6531C29.0868 32.7987 29.2074 31.6276 29.9905 30.9157L33.2233 27.9764C33.8492 27.4079 34.2057 26.6025 34.2057 25.7576V19.2054C34.2057 17.5485 32.8626 16.2054 31.2057 16.2054L22.6409 15.9998Z" fill="#22D3EE"/>
  <path d="M46 18C49.866 19.3598 52.6402 22.134 54 26" stroke="#A3E635" stroke-width="3.2" stroke-linecap="round"/>
  <path d="M44.5 24.5C46.0664 25.1076 47.3924 26.4336 48 28" stroke="#A3E635" stroke-width="3.2" stroke-linecap="round"/>
</svg>
