<svg width="64" height="64" viewBox="0 0 64 64" fill="none" xmlns="http://www.w3.org/2000/svg">
  <rect width="64" height="64" rx="14" fill="#0F172A"/>
  <path d="M21 43.5V22.5C21 17.8056 24.8056 14 29.5 14H34.25C41.2916 14 47 19.7084 47 26.75C47 33.7916 41.2916 39.5 34.25 39.5H28.5V43.5C28.5 45.9853 26.4853 48 24 48C22.3431 48 21 46.6569 21 45V43.5Z" fill="#336791"/>
  <path d="M31 18.5H34.1C38.7939 18.5 42.6 22.3061 42.6 27C42.6 31.6939 38.7939 35.5 34.1 35.5H28.5V30.8H33.4C35.9415 30.8 38 28.7415 38 26.2C38 23.6585 35.9415 21.6 33.4 21.6H31V18.5Z" fill="#E2E8F0"/>
  <circle cx="34.8" cy="25.2" r="1.8" fill="#0F172A"/>
  <path d="M27 45.5C33.4 42.9 38.6 42.8 44 44.8" stroke="#9BD5F5" stroke-width="3" stroke-linecap="round"/>
</svg>
