<?xml version="1.0" encoding="UTF-8"?>
<svg xmlns="http://www.w3.org/2000/svg" viewBox="0 0 512 512">
  <path fill="#a51d24" d="M282 13c44 35 86 91 114 157 18 44 20 72 1 88-36 30-119 30-211 3-17-5-33-11-49-18 0-2 0-4 1-6 21 5 45 5 71 2 65-7 110-31 119-55 2-7 1-13-2-19-11-24-62-55-112-79 13-23 26-46 36-73 8-1 21 3 32 10z"/>
  <path fill="#c0262e" d="M144 232c56 25 121 36 178 32 40-3 72-15 78-35 1 24-5 56-26 95-31 56-86 110-119 134-39-20-94-68-134-142-12-21-21-39-27-55 17-10 34-19 50-29z"/>
  <path fill="#b2b3b7" d="M245 10c-10 26-22 49-35 71-47-24-86-45-88-66 30-18 78-23 123-5z"/>
  <path fill="#9fa1a4" d="M88 15c12 22 47 43 87 64-13 20-28 40-45 59-41-38-56-87-42-123z"/>
  <path fill="#7a7b7f" d="M82 18C70 55 86 106 131 147l-46 49C58 162 47 118 61 70c5-16 12-31 21-45z"/>
  <path fill="#58595b" d="M139 154c48 41 115 65 167 62 23-1 40-7 48-15-9 23-56 44-114 50-26 3-53 2-76-3-11-2-22-5-32-8-15-21-31-45-48-72l55-62z"/>
</svg>
