<?xml version="1.0" encoding="UTF-8"?>
<svg xmlns="http://www.w3.org/2000/svg" viewBox="0 0 256 256">
  <circle cx="128" cy="128" r="128" fill="#24292e"/>
  <path fill="#fff" d="M78 76c10 0 20 4 28 12l18 18c4 4 10 6 16 6s12-2 16-6l18-18c16-16 40-16 56 0l-12 12c-9-9-23-9-32 0l-18 18c-7 7-17 11-28 11s-21-4-28-11l-18-18c-9-9-23-9-32 0L50 88c8-8 19-12 28-12zm100 104c-10 0-20-4-28-12l-18-18c-4-4-10-6-16-6s-12 2-16 6l-18 18c-16 16-40 16-56 0l12-12c9 9 23 9 32 0l18-18c7-7 17-11 28-11s21 4 28 11l18 18c9 9 23 9 32 0l12 12c-8 8-19 12-28 12z"/>
</svg>
