<svg width="1280" height="720" viewBox="0 0 1280 720" fill="none" xmlns="http://www.w3.org/2000/svg">
  <defs>
    <linearGradient id="qa-bg" x1="80" y1="64" x2="1180" y2="654" gradientUnits="userSpaceOnUse">
      <stop stop-color="#08121E"/>
      <stop offset="1" stop-color="#13283E"/>
    </linearGradient>
    <linearGradient id="qa-accent" x1="158" y1="178" x2="1082" y2="516" gradientUnits="userSpaceOnUse">
      <stop stop-color="#22D3EE"/>
      <stop offset="1" stop-color="#60A5FA"/>
    </linearGradient>
  </defs>
  <rect width="1280" height="720" rx="40" fill="url(#qa-bg)"/>
  <rect x="104" y="116" width="428" height="488" rx="28" fill="#0D1A29" stroke="rgba(148,163,184,0.22)"/>
  <rect x="150" y="160" width="118" height="18" rx="9" fill="#A3E635" fill-opacity="0.95"/>
  <rect x="150" y="202" width="242" height="16" rx="8" fill="#E2E8F0" fill-opacity="0.88"/>
  <rect x="150" y="242" width="334" height="14" rx="7" fill="#94A3B8" fill-opacity="0.24"/>
  <rect x="150" y="278" width="334" height="14" rx="7" fill="#94A3B8" fill-opacity="0.18"/>
  <rect x="150" y="330" width="334" height="92" rx="20" fill="#122538"/>
  <rect x="150" y="438" width="334" height="120" rx="22" fill="#0F2030" stroke="rgba(148,163,184,0.18)"/>
  <path d="M644 160H1132" stroke="rgba(148,163,184,0.18)" stroke-width="2"/>
  <rect x="678" y="194" width="420" height="126" rx="28" fill="#0F1F31" stroke="rgba(148,163,184,0.18)"/>
  <rect x="678" y="352" width="198" height="182" rx="28" fill="#102337" stroke="rgba(148,163,184,0.18)"/>
  <rect x="900" y="352" width="198" height="182" rx="28" fill="#102337" stroke="rgba(148,163,184,0.18)"/>
  <path d="M764 534V602H996V534" stroke="url(#qa-accent)" stroke-width="4"/>
  <path d="M996 534L1044 486" stroke="url(#qa-accent)" stroke-width="4"/>
  <path d="M764 534L716 486" stroke="url(#qa-accent)" stroke-width="4"/>
  <circle cx="784" cy="256" r="34" fill="#07111B" stroke="url(#qa-accent)" stroke-width="3"/>
  <circle cx="906" cy="256" r="34" fill="#07111B" stroke="url(#qa-accent)" stroke-width="3"/>
  <circle cx="1028" cy="256" r="34" fill="#07111B" stroke="url(#qa-accent)" stroke-width="3"/>
  <text x="642" y="110" fill="#E2E8F0" font-family="Space Grotesk, Sora, Arial, sans-serif" font-size="44" font-weight="700">QA Intelligence Pipeline</text>
  <text x="642" y="156" fill="#94A3B8" font-family="Sora, Arial, sans-serif" font-size="24" font-weight="500">AI-assisted test generation, defect triage, and release readiness across the delivery flow.</text>
</svg>
