<?xml version="1.0" encoding="UTF-8"?>
<svg xmlns="http://www.w3.org/2000/svg" viewBox="0 0 512 512">
  <circle cx="256" cy="256" r="256" fill="#111"/>
  <path fill="#fff" d="M188 192c0-6 5-11 11-11s11 5 11 11-5 11-11 11-11-5-11-11zm114-11c-6 0-11 5-11 11s5 11 11 11 11-5 11-11-5-11-11-11zm-56-32c-2 0-4 0-5 1l-17-28c-1-2-4-3-6-1s-3 4-1 6l17 28c-12 4-22 11-29 22-2 3-1 7 2 9s7 1 9-2c8-13 21-20 36-20 14 0 27 7 35 20 1 3 5 4 8 2 3-1 4-5 2-8-7-11-17-18-29-22l17-28c2-2 1-5-1-7-2-1-5-1-6 1l-17 28c-2-1-4-1-5-1zm115 62c-8 0-15 7-15 15v96c0 8 7 15 15 15s15-7 15-15v-96c0-8-7-15-15-15zm-228 0c-8 0-15 7-15 15v96c0 8 7 15 15 15s15-7 15-15v-96c0-8-7-15-15-15zm32-9h8v130c0 6 5 10 10 10h22v31c0 12 10 22 22 22 13 0 23-10 23-22v-31h23v31c0 12 10 22 22 22 13 0 23-10 23-22v-31h22c6 0 11-4 11-10V202c0-28-22-50-49-50h-99c-27 0-49 22-49 50v109c0 6 5 10 11 10h23v-9z"/>
</svg>
