<?xml version="1.0" encoding="UTF-8"?>
<svg xmlns="http://www.w3.org/2000/svg" viewBox="0 0 256 256">
  <path fill="#10aa50" d="M128 238s-7-35-7-60c0-35 7-59 7-59s7 24 7 59c0 25-7 60-7 60z"/>
  <path fill="#12924f" d="M128 119s39 1 39 52c0 42-34 52-34 52s13-17 13-52c0-30-18-52-18-52z"/>
  <path fill="#15cf74" d="M128 119s-39 1-39 52c0 42 34 52 34 52s-13-17-13-52c0-30 18-52 18-52z"/>
  <path fill="#ffffff" d="M128 33c-6 4-28 20-38 52-14 43 10 82 35 101 1 0 3 2 3-1 0-4-1-7-1-11 0-5 1-10 1-10s-28-21-24-57c3-28 21-48 24-50 1-1 2-2 0-3z"/>
</svg>
