<?xml version="1.0" encoding="UTF-8"?>
<svg xmlns="http://www.w3.org/2000/svg" viewBox="0 0 256 256">
  <path fill="#3c873a" d="M127.8 11.4 26.8 69.2v117.6l101 57.8 101-57.8V69.2z"/>
  <path fill="#68a063" d="M127.8 32.6 48.6 78.4v99.2l79.2 45.8 79.2-45.8V78.4z"/>
  <path fill="#fff" d="M143.8 179c0 11.4-9.5 18.8-23.8 18.8-15.8 0-25.3-7.6-30.4-17.5l15.8-9.5c3 5.4 6 10 12.8 10 6.6 0 10.8-2.6 10.8-12.7V106h14.8zm33.3-73.4c15 0 24.7 6.8 29.7 16.8l-15.2 8.9c-3.2-5.4-6.8-9.3-14.4-9.3-8.3 0-13.6 4.1-13.6 9.8 0 6.4 5.3 8.7 14.2 12.4l4.8 2c16.5 7 27.5 15.7 27.5 33.8 0 19.3-15.2 30-35.6 30-19.9 0-32.8-9.5-39.1-21.8l15-9.1c3.9 6.9 8.9 12 17.8 12 7.4 0 12.2-3.4 12.2-9.1 0-6.3-4.8-8.6-13.2-12.4l-5.1-2c-14.6-6.3-26.7-14.2-26.7-33.4 0-19 14.5-30.3 34.6-30.3z"/>
</svg>
