<svg width="128" height="128" viewBox="0 0 128 128" fill="none" xmlns="http://www.w3.org/2000/svg">
  <rect width="128" height="128" rx="28" fill="#0F172A"/>
  <path d="M64 20C42 20 43 30 43 30V43H65V47H34C34 47 20 45 20 67C20 89 32 88 32 88H45V69C45 69 44 47 66 47C88 47 84 69 84 69V84C84 84 85 108 64 108C43 108 44 98 44 98V85H22C22 85 10 86 10 64C10 42 22 43 22 43H34V32C34 32 33 20 64 20Z" fill="#3776AB"/>
  <circle cx="54" cy="32" r="4" fill="#E2E8F0"/>
  <path d="M64 108C86 108 85 98 85 98V85H63V81H94C94 81 108 83 108 61C108 39 96 40 96 40H83V59C83 59 84 81 62 81C40 81 44 59 44 59V44C44 44 43 20 64 20C85 20 84 30 84 30V43H106C106 43 118 42 118 64C118 86 106 85 106 85H94V96C94 96 95 108 64 108Z" fill="#FFD43B"/>
  <circle cx="74" cy="96" r="4" fill="#0F172A"/>
</svg>
