<svg width="420" height="120" viewBox="0 0 420 120" fill="none" xmlns="http://www.w3.org/2000/svg">
  <defs>
    <linearGradient id="bq-dark-word" x1="18" y1="16" x2="84" y2="86" gradientUnits="userSpaceOnUse">
      <stop stop-color="#08285D"/>
      <stop offset="1" stop-color="#0B4F9C"/>
    </linearGradient>
    <linearGradient id="bq-cyan-word" x1="56" y1="18" x2="112" y2="84" gradientUnits="userSpaceOnUse">
      <stop stop-color="#0F69D8"/>
      <stop offset="0.62" stop-color="#18A9F3"/>
      <stop offset="1" stop-color="#29C8FF"/>
    </linearGradient>
  </defs>
  <rect width="420" height="120" rx="24" fill="none"/>
  <g transform="translate(22 22)">
    <path fill-rule="evenodd" clip-rule="evenodd" d="M0 0H40C61.5391 0 79 17.4609 79 39C79 51.2499 73.3311 62.1758 64.4734 69.3199C74.1622 75.5232 80.6 86.3712 80.6 98.7231V99H0V0ZM17.4 14.6V84.4H40C50.713 84.4 59.4 75.713 59.4 65C59.4 54.287 50.713 45.6 40 45.6H25.1V31.7H38.7C49.413 31.7 58.1 23.013 58.1 12.3C58.1 11.5224 58.0542 10.7555 57.9649 10H40C27.5736 10 17.4 20.1736 17.4 32.6V14.6Z" fill="url(#bq-dark-word)"/>
    <path fill-rule="evenodd" clip-rule="evenodd" d="M53 0C75.6437 0 94 18.3563 94 41C94 49.6427 91.3241 57.6605 86.7552 64.2744L99 76.5192L86.5192 89L73.9661 76.4468C69.199 79.4634 63.542 81.4728 57.4 82.2192V62.2538C58.8865 62.6338 60.4446 62.8367 62.05 62.8367C72.3191 62.8367 80.6438 54.5119 80.6438 44.2429C80.6438 33.9738 72.3191 25.6491 62.05 25.6491C51.7809 25.6491 43.4562 33.9738 43.4562 44.2429C43.4562 51.7218 47.8761 58.1685 54.2452 61.1326V81.8421C35.4961 77.0527 21.6437 60.0537 21.6437 39.8184C21.6437 15.0999 41.6816 -4.93799 66.4 -4.93799L53 0Z" fill="url(#bq-cyan-word)"/>
    <path d="M84 5H88V34H84V5Z" fill="#17ADEE"/>
    <path d="M91 0H95V34H91V0Z" fill="#1BCBFF"/>
    <path d="M98 -6H102V34H98V-6Z" fill="#29C8FF"/>
  </g>
  <text x="132" y="54" fill="#E2E8F0" font-family="Space Grotesk, Sora, Arial, sans-serif" font-size="36" font-weight="700" letter-spacing="0.3">BlueQuant</text>
  <text x="134" y="80" fill="#94A3B8" font-family="Sora, Arial, sans-serif" font-size="15" font-weight="600" letter-spacing="1.3">REAL-TIME ARBITRAGE SYSTEMS</text>
</svg>
